<svg xmlns="http://www.w3.org/2000/svg" width="729.796" height="130.673" viewBox="0 0 729.796 130.673">
  <g id="Groupe_1" data-name="Groupe 1" transform="translate(-717 -442.337)">
    <path id="Exclusion_1" data-name="Exclusion 1" d="M226.764,112.01a93.033,93.033,0,0,1-12.125-.788,52.626,52.626,0,0,1-14.611-3.869,38.182,38.182,0,0,1-8.214-5.15,49.085,49.085,0,0,1-6.044-5.866,46.954,46.954,0,0,1-5.006-6.814l-.012.012a74.9,74.9,0,0,1-6.63,4.988,73.532,73.532,0,0,1-16.15,8.343,82.812,82.812,0,0,1-18.71,3.915c-5.339.559-9.165.572-9.2.572a125.165,125.165,0,0,0,4.36-19.745c.98-8.456,1.861-10.47,4.476-16.449l0-.008c.3-.681.606-1.386.944-2.167a41.661,41.661,0,0,1,7.882-12.149,8,8,0,0,0-.839-.383c-2.2-.922-7.366-3.082-12.466-11.841-1.7-2.917-4.377-8.441-7.494-18.189-1.86-5.816-3.015-10.468-3.026-10.515l.016,0a92.129,92.129,0,0,1,12.959-.958,54.546,54.546,0,0,1,10.851.962,43.656,43.656,0,0,1,13.063,5.141,40.956,40.956,0,0,1,5.176,3.518.039.039,0,0,1,0-.015,50.946,50.946,0,0,1,2.2-7.336A58.678,58.678,0,0,1,176.748,1.76,89.06,89.06,0,0,1,191.582-12.5c4.71-3.719,8.409-6.135,8.446-6.159a.205.205,0,0,1,.017.028c.394.709,2.48,4.495,4.824,9.462a105.84,105.84,0,0,1,7.075,18.825,47.128,47.128,0,0,1,1.117,15.4,31.121,31.121,0,0,1-1.117,6.066l.013-.009a29.273,29.273,0,0,1,4.514-2.191,31.3,31.3,0,0,1,11.167-2.2,25.255,25.255,0,0,1,5.982.708,37.343,37.343,0,0,1,8.709,3.529,72.33,72.33,0,0,1,7.893,5.015,90.406,90.406,0,0,1,7.936,6.429l-.014.018c-.464.539-2.955,3.4-6.5,6.872A80.75,80.75,0,0,1,237.258,60.8a47.125,47.125,0,0,1-14.5,5.442,39.666,39.666,0,0,1-6.624.818l.009.017a120.008,120.008,0,0,1,5.77,17.435,50.23,50.23,0,0,1,1.331,9.891,31.9,31.9,0,0,0,1.3,8.46,20.721,20.721,0,0,0,3.555,7.107,9.524,9.524,0,0,0,2.017,1.965.363.363,0,0,1-.056,0C229.092,111.986,227.954,112.01,226.764,112.01ZM187,60.773a1.857,1.857,0,0,0-.512,1.443c-.012.965.4,2.7,2.408,5.472C192.742,73,201.587,79.55,201.676,79.616c-.031-.052-3.9-6.655-7.72-11.929C190.108,62.378,187.03,60.788,187,60.773Zm-6.083,0h0c-.9,0-2.815.417-5.518,3.213-3.765,3.893-9.109,12.494-9.163,12.58.1-.071,10.487-7.793,14.269-11.705,1.549-1.6,2.192-2.762,1.913-3.451-.22-.543-.963-.573-.97-.573a1.787,1.787,0,0,0-.531-.064Zm39.307-13.164c-.169.029-16.591,2.835-24.546,5.337-4.155,1.307-6.008,2.537-6.83,3.34-.89.867-.8,1.437-.8,1.442a.757.757,0,0,0,.193.566c.217.255.719.559,1.882.559a20.132,20.132,0,0,0,5.553-1.124C203.634,55.225,220.055,47.686,220.224,47.608ZM158.848,42.95h0a43.584,43.584,0,0,0,11.1,8.9c7.383,4.328,11.492,4.679,11.533,4.682a5.047,5.047,0,0,0-1.223-1.9,27.848,27.848,0,0,0-6.824-5.18,75.33,75.33,0,0,0-14.585-6.506Zm31.7-21.431c-.042.126-4.152,12.426-5.518,20.6s-.014,12.377,0,12.418a5.352,5.352,0,0,0,1.433-1.825,24.844,24.844,0,0,0,2.468-8.015C190.3,36.535,190.55,21.672,190.552,21.519Z" transform="translate(1188.637 461)" fill="#efefef"/>
    <g id="layer1" transform="translate(618.359 423.037)">
      <g id="text10" transform="translate(98.641 58.3)">
        <path id="path16" d="M73.351,90.87q0-4.623,5.778-5.316A8.946,8.946,0,0,0,75.2,79.2a14.193,14.193,0,0,0-8.436-2.311,15.358,15.358,0,0,0-12.828,6.356q-4.854,6.356-4.854,16.873,0,10.863,4.507,17.1A15.051,15.051,0,0,0,66.3,123.345a13.842,13.842,0,0,0,8.783-2.889,14.414,14.414,0,0,0,5.2-7.974q1.156-4.045,1.387-4.623a4.016,4.016,0,0,1,3.7-2.311,4.35,4.35,0,0,1,4.507,4.507,17.273,17.273,0,0,1-1.849,6.934,24.072,24.072,0,0,1-4.392,6.7q-6.818,7.281-17.682,7.281-11.788,0-19.069-8.321-7.165-8.321-7.165-21.842,0-14.33,7.4-22.882Q54.63,69.259,67,69.259q9.245,0,15.37,5.085a15.651,15.651,0,0,1,6.125,12.712,10.315,10.315,0,0,1-2.427,7.05,7.454,7.454,0,0,1-6.009,2.774A7.072,7.072,0,0,1,75.2,95.146a5.629,5.629,0,0,1-1.849-4.276Z" transform="translate(-39.721 -50.422)" fill="#efefef"/>
        <path id="path18" d="M95.755,130.51q-9.477,0-11.672-8.205-5.894,8.668-18.491,8.668-9.361,0-15.024-4.623a15.276,15.276,0,0,1-5.547-12.366q0-9.592,8.205-14.1a19.954,19.954,0,0,1,5.316-2.2,89.5,89.5,0,0,1,9.13-1.387q9.708-1.04,12.6-2.889,3-1.849,3-6.818a8.911,8.911,0,0,0-3.351-7.4q-3.236-2.774-9.13-2.774a17.658,17.658,0,0,0-9.708,2.889q-1.733,1.156-1.733,2.427,0,.462,1.04,1.156a4.5,4.5,0,0,1,1.618,3.929,4.826,4.826,0,0,1-1.733,3.814,5.872,5.872,0,0,1-4.16,1.5,6.917,6.917,0,0,1-5.085-2.08,7.13,7.13,0,0,1-1.965-5.085q0-6.472,6.356-11.094a26.135,26.135,0,0,1,15.6-4.623q21.033,0,21.033,20.224v23.345a49.4,49.4,0,0,0,.231,6.587q.693,4.045,3.929,4.045,4.045,0,4.045-7.4V110.4q0-3.7,3.583-3.7,3.814,0,3.814,5.547v.578l-.116,6.587q-.231,11.094-11.788,11.094Zm-12.828-23,.115-8.205a14.759,14.759,0,0,1-5.432,3.236,52.453,52.453,0,0,1-10.054,1.618q-13.175,1.271-13.175,9.708A8.466,8.466,0,0,0,57.5,120.8q3.236,2.543,8.668,2.543,7.743,0,12.135-4.16,4.507-4.276,4.623-11.672Z" transform="translate(12.851 -50.422)" fill="#efefef"/>
        <path id="path20" d="M71.06,74.575V77.7a18.773,18.773,0,0,1,16.064-8.436q8.09,0,13.059,4.623a14.874,14.874,0,0,1,5.085,11.672,13.066,13.066,0,0,1-2.543,8.321,8.222,8.222,0,0,1-6.7,3.12,6.605,6.605,0,0,1-4.507-1.618,5.035,5.035,0,0,1-1.849-3.929,4.435,4.435,0,0,1,1.387-3.236,4.278,4.278,0,0,1,3.236-1.5,7.043,7.043,0,0,1,1.5.347,5.752,5.752,0,0,0,.693-2.542,6.924,6.924,0,0,0-3-5.663A11.287,11.287,0,0,0,86.2,76.54q-9.014,0-12.019,8.09Q72.332,89.6,72.332,99.653v7.627q0,7.743.116,8.668.578,6.587,3.583,6.587a11.345,11.345,0,0,0,3.12-.462,8.534,8.534,0,0,1,2.2-.347q3.7,0,3.7,3.7,0,4.045-4.738,4.045h-.462a45.967,45.967,0,0,1-5.316-.462q-3.467-.347-5.2-.347-4.623,0-7.281.231l-6.472.578q-4.738,0-4.738-4.045,0-3.583,4.392-3.583a9.569,9.569,0,0,1,1.734.116l1.733.347a9.735,9.735,0,0,0,1.618.231q2.889,0,3.12-5.316l.231-5.894-.347-26.234q-.347-6.818-3.467-6.818a12.938,12.938,0,0,0-2.543.347,12.937,12.937,0,0,1-2.543.347q-3.814,0-3.814-3.7,0-4.045,4.969-4.045a25.655,25.655,0,0,1,3.467.347q2.311.231,3.467.231.925,0,3-.231a9.141,9.141,0,0,1,2.2-.231q3,0,3,3.236Z" transform="translate(70.535 -50.422)" fill="#efefef"/>
        <path id="path22" d="M106.917,130.51q-9.477,0-11.672-8.205-5.894,8.668-18.491,8.668-9.361,0-15.024-4.623a15.276,15.276,0,0,1-5.547-12.366q0-9.592,8.205-14.1a19.954,19.954,0,0,1,5.316-2.2,89.5,89.5,0,0,1,9.13-1.387q9.708-1.04,12.6-2.889,3-1.849,3-6.818a8.911,8.911,0,0,0-3.351-7.4q-3.236-2.774-9.13-2.774a17.658,17.658,0,0,0-9.708,2.889q-1.733,1.156-1.734,2.427,0,.462,1.04,1.156a4.5,4.5,0,0,1,1.618,3.929,4.827,4.827,0,0,1-1.734,3.814,5.872,5.872,0,0,1-4.16,1.5,6.917,6.917,0,0,1-5.085-2.08,7.13,7.13,0,0,1-1.965-5.085q0-6.472,6.356-11.094a26.135,26.135,0,0,1,15.6-4.623q21.033,0,21.033,20.224v23.345a49.388,49.388,0,0,0,.231,6.587q.693,4.045,3.929,4.045,4.045,0,4.045-7.4V110.4q0-3.7,3.583-3.7,3.814,0,3.814,5.547v.578l-.116,6.587q-.231,11.094-11.788,11.094Zm-12.828-23,.115-8.205a14.759,14.759,0,0,1-5.432,3.236,52.454,52.454,0,0,1-10.054,1.618q-13.175,1.271-13.175,9.708a8.466,8.466,0,0,0,3.12,6.934q3.236,2.543,8.668,2.543,7.743,0,12.135-4.16,4.507-4.276,4.623-11.672Z" transform="translate(123.576 -50.422)" fill="#efefef"/>
        <path id="path24" d="M82,74.691v3.351a26.267,26.267,0,0,1,7.859-6.818,19.556,19.556,0,0,1,9.245-1.965q11.326,0,16.642,8.783a24.347,24.347,0,0,1,7.974-6.818,23.85,23.85,0,0,1,10.4-1.965,24.656,24.656,0,0,1,11.788,2.774,16.671,16.671,0,0,1,7.974,8.783q1.5,3.814,1.5,12.019v11.21l-.116,8.668q0,4.738.116,5.778.578,4.16,3,4.16a12.761,12.761,0,0,0,2.427-.347,12.764,12.764,0,0,1,2.427-.347q4.045,0,4.045,3.467,0,4.045-4.623,4.045a45.968,45.968,0,0,1-5.316-.462q-3.467-.347-5.316-.347-1.965,0-5.778.347a49.311,49.311,0,0,1-5.663.462q-4.854,0-4.854-4.045,0-3.467,3.7-3.467.462,0,2.311.231a6.012,6.012,0,0,0,1.849.231,2.281,2.281,0,0,0,2.427-1.965q.578-1.965.693-9.823l.116-7.05V95.955q0-7.974-1.271-11.557a10.189,10.189,0,0,0-4.507-5.778,14.164,14.164,0,0,0-7.627-2.08q-8.205,0-11.441,5.663-2.542,4.507-2.543,15.717v8.205a115.528,115.528,0,0,0,.462,13.637q.578,2.658,2.774,2.658a11.814,11.814,0,0,0,1.965-.231,9.48,9.48,0,0,1,2.08-.347,3.954,3.954,0,0,1,3.814,3.814q0,3.814-5.432,3.814a43.17,43.17,0,0,1-5.2-.462,40.484,40.484,0,0,0-5.085-.462,33.838,33.838,0,0,0-5.316.462,32.669,32.669,0,0,1-5.085.462q-4.738,0-4.738-3.929,0-3.582,3.467-3.582a6.5,6.5,0,0,1,1.965.231,12.766,12.766,0,0,0,2.427.347q2.774,0,2.889-5.894l.116-5.432q.116-2.543.115-4.969.116-2.08.116-2.2V94.453q0-10.054-2.774-13.984-2.658-3.929-9.592-3.929-7.627,0-11.672,5.547Q83.389,86.594,83.389,97.8v15.37q0,4.623.115,5.432.462,3.929,2.542,3.929a13.115,13.115,0,0,0,2.427-.462,3.158,3.158,0,0,0,.693-.116h.809q4.507,0,4.507,3.814,0,3.7-5.2,3.7a41.9,41.9,0,0,1-4.854-.347,58.732,58.732,0,0,0-6.7-.462q-1.387,0-5.085.347-4.969.462-6.009.462-4.623,0-4.623-3.929,0-3.582,4.392-3.582h.693a3.16,3.16,0,0,0,.693.116l2.889.578a.669.669,0,0,0,.462.116q3.12,0,3.351-5.663l.231-6.587V92.835q0-9.823-.578-12.25a2.61,2.61,0,0,0-2.774-2.427,28.922,28.922,0,0,0-3.236.578,9.939,9.939,0,0,1-1.849.231q-4.276,0-4.276-3.7,0-3.929,4.738-3.929,1.271,0,3.467.231a37.074,37.074,0,0,0,3.814.231,7.78,7.78,0,0,0,1.271-.116h.809l2.774-.347h.347Q82,71.34,82,74.691Z" transform="translate(181.365 -50.422)" fill="#efefef"/>
        <path id="path26" d="M93.709,72.388q-.925,9.592-1.04,22.767a23.3,23.3,0,0,1,7.512-6.818,20.838,20.838,0,0,1,9.592-1.965q11.557,0,18.375,8.09t6.818,21.5q0,14.677-7.281,23.46-7.165,8.668-19.415,8.668-11.9,0-17.22-8.9.462,3.351.462,3.7,0,4.16-4.045,4.16t-4.045-5.778a18.665,18.665,0,0,1,.116-2.427q0-2.658.116-5.663l.347-8.9.231-11.672L84,81.749q-.116-4.276-.925-5.778a2.55,2.55,0,0,0-2.543-1.5q-.347,0-3,.462a12.531,12.531,0,0,1-2.2.231q-3.929,0-3.929-3.7,0-3.814,4.623-3.814a19.163,19.163,0,0,1,2.311.116l2.774.347a25.275,25.275,0,0,0,3,.231A25.88,25.88,0,0,0,87.7,68a19.469,19.469,0,0,1,3.467-.462q2.543,0,2.543,3.236ZM93.593,105.9a51.451,51.451,0,0,0-.809,10.4q0,11.441,1.849,15.717,3.583,8.436,13.637,8.436a14.841,14.841,0,0,0,12.6-6.241q4.738-6.356,4.738-16.988,0-10.863-4.507-16.988A14.03,14.03,0,0,0,108.964,94a15.458,15.458,0,0,0-9.823,3.467,14.394,14.394,0,0,0-5.547,8.436Z" transform="translate(274.562 -67.534)" fill="#efefef"/>
        <path id="path28" d="M104.73,130.972q-12.134,0-19.415-8.321-7.281-8.436-7.281-22.536T85.315,77.7q7.4-8.436,19.762-8.436,12.6,0,19.878,8.205t7.281,22.3q0,14.1-7.512,22.651t-19.993,8.552Zm.578-54.086q-8.09,0-12.712,5.663T87.51,98.613v1.5q0,10.863,4.507,17.1,4.623,6.125,12.828,6.125,8.436,0,13.175-6.125,4.854-6.241,4.854-17.22,0-23.113-17.566-23.113Z" transform="translate(340.33 -50.422)" fill="#efefef"/>
        <path id="path30" d="M105.01,97.813l.116,35.941q.116,5.894,3.12,5.894a14.844,14.844,0,0,0,2.889-.578,14.174,14.174,0,0,1,1.849-.231q3.814,0,3.814,3.929,0,3.814-4.738,3.814a58.339,58.339,0,0,1-5.894-.462,59.035,59.035,0,0,0-6.241-.462,49.043,49.043,0,0,0-5.547.462,48.888,48.888,0,0,1-5.432.462h-.578q-4.854,0-4.854-4.16,0-3.583,3.929-3.583h.809a6.952,6.952,0,0,0,1.04.116q2.889.462,3.351.462a2.308,2.308,0,0,0,2.542-1.734q.578-1.849.693-9.361l.116-8.09.347-17.913-.116-20.571a35.035,35.035,0,0,0-.347-4.623,3.225,3.225,0,0,0-3.236-2.658q-.347,0-3,.462a12.113,12.113,0,0,1-2.08.231q-3.929,0-3.929-3.7,0-3.814,4.623-3.814a17.987,17.987,0,0,1,2.2.116l2.774.347a25.855,25.855,0,0,0,3.12.231A25.656,25.656,0,0,0,99.81,68a19.468,19.468,0,0,1,3.467-.462q2.658,0,2.658,3.352a9.576,9.576,0,0,1-.115,1.734q-.809,8.9-.809,25.194Z" transform="translate(394.699 -67.534)" fill="#efefef"/>
        <path id="path32" d="M139.566,95.031q0,4.392-.578,5.432-.578.925-3.351.925H98.886a2.905,2.905,0,0,0-1.965.462,1.5,1.5,0,0,0-.462,1.271,20.789,20.789,0,0,0,5.2,14.446,16.7,16.7,0,0,0,12.943,5.778,16.306,16.306,0,0,0,9.245-2.774,12.623,12.623,0,0,0,5.547-7.05l1.04-3.351a3.587,3.587,0,0,1,3.814-2.774q4.276,0,4.276,4.392,0,7.512-7.627,13.406a27.959,27.959,0,0,1-17.335,5.778q-12.134,0-19.3-8.09Q87.1,114.677,87.1,100.925q0-14.1,7.627-22.882T114.6,69.259q10.863,0,17.913,7.281t7.05,18.491Zm-41.951-3q0,1.618,2.543,1.618h27.621q2.427,0,2.427-1.618a14.367,14.367,0,0,0-4.623-10.632,15.056,15.056,0,0,0-10.863-4.507,17.309,17.309,0,0,0-11.788,4.738q-5.316,4.623-5.316,10.4Z" transform="translate(430.246 -50.422)" fill="#efefef"/>
      </g>
    </g>
  </g>
</svg>
